<svg width="43" height="40" viewBox="0 0 43 40" fill="none" xmlns="http://www.w3.org/2000/svg">
<rect x="0.5" width="42" height="40" rx="6" fill="white"/>
<g clip-path="url(#clip0_10479_21551)">
<path d="M38.4989 24.6084C38.3828 24.6875 38.3979 24.824 38.3651 24.9378C37.9896 26.2325 36.8061 27.2325 35.5067 27.2544C33.6935 27.2862 31.8785 27.2598 30.0644 27.258C29.975 27.1579 29.8882 27.0551 29.7943 26.9586C27.136 24.228 24.4769 21.4984 21.8195 18.7669C21.7132 18.6577 21.5671 18.5731 21.5547 18.3911C21.661 18.2764 21.7655 18.1591 21.8736 18.0472C22.7682 17.1209 23.6637 16.1946 24.5584 15.2693C25.5142 14.2938 26.4717 13.3203 27.4257 12.343C27.6383 12.1256 27.8641 11.929 28.1325 11.7871C29.1388 11.2548 30.2806 11.4705 31.1575 12.3694C33.6058 14.8789 36.0515 17.392 38.498 19.9033V24.6102L38.4989 24.6084Z" fill="#388D3C"/>
<path d="M38.4997 19.9032C36.0531 17.3919 33.6084 14.8787 31.1592 12.3692C30.2823 11.4703 29.1405 11.2555 28.1342 11.7869C27.8667 11.9289 27.64 12.1254 27.4274 12.3429C26.4734 13.3201 25.5158 14.2937 24.5601 15.2691C24.4547 15.1826 24.4901 15.0607 24.4901 14.9515C24.4892 11.3038 24.4901 7.65509 24.4901 4.00734C28.1077 4.00734 31.7252 4.02462 35.3428 4.00006C36.5873 3.99187 37.8858 4.87537 38.3004 6.14922C38.3385 6.26569 38.3163 6.43675 38.4979 6.46495V19.9022L38.4997 19.9032Z" fill="#EBEEF0"/>
<path d="M28.8058 35.9984C28.7978 35.8482 28.6765 35.871 28.5861 35.8464C26.6108 35.3041 24.6355 34.7636 22.6602 34.2195C21.0144 33.7664 19.3695 33.3087 17.7255 32.851C17.6963 32.8428 17.6741 32.811 17.6484 32.791C17.8708 31.8775 18.2171 31.0049 18.4864 30.1068C18.5511 29.8921 18.6662 29.6892 18.6441 29.4517C23.6204 29.4517 28.5967 29.4535 33.5731 29.4453C33.8769 29.4453 33.915 29.5117 33.8211 29.8038C33.4004 31.115 33.0071 32.4352 32.597 33.75C32.2798 34.7691 31.6093 35.4397 30.6411 35.8136C30.549 35.8491 30.4046 35.8364 30.3984 35.9993H28.8049L28.8058 35.9984Z" fill="#EBEEF0"/>
<path d="M18.6442 29.4534C18.6664 29.6909 18.5512 29.8938 18.4866 30.1085C18.2173 31.0066 17.8718 31.8791 17.6486 32.7927C17.0312 32.7244 16.4492 32.5033 15.854 32.3432C13.7538 31.7781 11.6589 31.1913 9.56227 30.6135C8.7004 30.376 7.83676 30.1431 6.97577 29.9029C5.88005 29.5971 5.10853 28.9165 4.69399 27.8183C4.65678 27.7191 4.67981 27.5472 4.5 27.5426V27.4061C4.57706 27.3606 4.57175 27.3151 4.5 27.2696V26.1104C4.56909 26.0649 4.57795 26.0194 4.5 25.9739V25.8375C4.67804 25.8284 4.65678 25.6609 4.68779 25.5581C5.22546 23.7383 5.75516 21.9167 6.28574 20.0942C6.78798 18.37 7.28845 16.6457 7.78981 14.9215C7.84916 14.7186 7.90939 14.5166 8.02543 14.3164C8.02543 14.4311 8.02543 14.5466 8.02543 14.6613C8.02543 17.683 8.01657 20.7048 8.02986 23.7265C8.03517 24.9767 8.34608 26.145 9.06888 27.175C9.96175 28.4489 11.17 29.1822 12.6811 29.3851C13.8256 29.5389 14.9762 29.4261 16.1242 29.4497C16.9648 29.467 17.8054 29.4534 18.646 29.4534H18.6442Z" fill="#CCCFD1"/>
<path d="M4.5 25.9727C4.57795 26.0182 4.56909 26.0636 4.5 26.1091V25.9727Z" fill="#FEFEFE"/>
<path d="M4.5 27.2695C4.57175 27.315 4.57706 27.3605 4.5 27.406V27.2695Z" fill="#FEFEFE"/>
<path d="M24.4904 4.00659C24.4904 7.65435 24.4887 11.303 24.4904 14.9508C24.4904 15.06 24.455 15.1819 24.5604 15.2683C23.6649 16.1946 22.7702 17.12 21.8756 18.0462C21.7666 18.1591 21.663 18.2755 21.5567 18.3902C21.4185 18.422 21.3654 18.301 21.2919 18.2273C21.0013 17.9361 20.7205 17.635 20.4282 17.3465C19.9499 16.8761 19.3874 16.6086 18.7142 16.6195C17.9445 16.5695 17.3351 16.8979 16.8045 17.4448C14.6972 19.6176 12.5837 21.7841 10.4711 23.9514C10.3861 24.0388 10.2904 24.1152 10.2001 24.1971C10.1106 24.0879 10.1487 23.9569 10.1487 23.8359C10.1469 18.3228 10.146 12.8107 10.1478 7.29767C10.1478 5.69717 11.2807 4.30504 12.8078 4.02024C12.9265 3.9984 13.0505 4.00477 13.1719 4.00477C16.9453 4.00477 20.7188 4.00477 24.4922 4.00477L24.4904 4.00659ZM17.2111 14.1719C18.8188 14.161 20.1023 12.8517 20.089 11.2366C20.0757 9.65884 18.7727 8.33586 17.2314 8.33586C15.6875 8.33586 14.3907 9.68523 14.3987 11.2839C14.4067 12.8553 15.699 14.1819 17.2119 14.1719H17.2111Z" fill="#CCCFD1"/>
<path d="M18.7154 16.6214C19.3886 16.6114 19.9519 16.8789 20.4294 17.3484C20.7226 17.6368 21.0034 17.938 21.293 18.2291C21.3665 18.3028 21.4197 18.4239 21.5579 18.392C21.5703 18.574 21.7164 18.6586 21.8227 18.7678C24.4801 21.4993 27.1392 24.229 29.7974 26.9596C29.8913 27.056 29.9772 27.1588 30.0676 27.2589C27.9373 27.2626 25.807 27.2689 23.6775 27.2689C22.022 27.2689 20.3665 27.2616 18.7109 27.258C18.7127 23.7122 18.7136 20.1672 18.7154 16.6214Z" fill="#4CAE50"/>
<path d="M18.7147 16.6213C18.7129 20.1671 18.712 23.7121 18.7103 27.2579C16.8289 27.2616 14.9475 27.2898 13.0669 27.2597C11.5708 27.2361 10.15 25.6829 10.2005 24.1998C10.2909 24.1179 10.3865 24.0415 10.4716 23.9541C12.5842 21.7867 14.6977 19.6194 16.8049 17.4475C17.3355 16.9006 17.945 16.5722 18.7147 16.6222V16.6213Z" fill="#388D3C"/>
<path d="M17.2117 14.172C15.6988 14.182 14.4064 12.8554 14.3985 11.284C14.3905 9.68531 15.6882 8.33503 17.2312 8.33594C18.7725 8.33594 20.0755 9.65892 20.0888 11.2367C20.1029 12.8517 18.8194 14.1611 17.2108 14.172H17.2117Z" fill="#DDA807"/>
</g>
<defs>
<clipPath id="clip0_10479_21551">
<rect width="34" height="32" fill="white" transform="translate(4.5 4)"/>
</clipPath>
</defs>
</svg>
