<svg width="45" height="45" viewBox="0 0 45 45" fill="none" xmlns="http://www.w3.org/2000/svg">
<g clip-path="url(#clip0_9468_36818)">
<path d="M9.14026 0C16.8068 0 24.472 0 32.1385 0C32.1738 0.0549531 32.2077 0.111005 32.243 0.165958C32.0718 0.309935 32.141 0.495677 32.141 0.662734C32.1373 3.21366 32.1373 5.76348 32.1385 8.3144C32.1385 10.0707 33.4207 11.2346 35.4452 11.3247C35.4691 11.5017 35.6289 11.5973 35.756 11.7094C38.6852 14.2691 41.6144 16.8277 44.5448 19.3853C44.6719 19.4963 44.7764 19.6424 44.9878 19.6457C44.9878 27.1666 44.9966 34.6864 44.9827 42.2073C44.9815 43.0898 44.5524 43.8284 43.7421 44.401C43.4074 44.6373 42.9381 44.6714 42.6826 44.9989H8.73887C8.71245 44.7802 8.47464 44.8 8.32491 44.7373C7.07044 44.2109 6.47151 43.3173 6.43502 42.1314C6.40608 41.2148 6.43376 40.2982 6.43502 39.3805C16.5866 39.3816 26.7381 39.3838 36.8884 39.3849C36.9387 39.3849 36.9891 39.386 37.0394 39.3849C37.8661 39.3475 38.5279 38.7848 38.5606 38.0638C38.5782 37.6703 38.5506 37.2758 38.543 36.8812C38.5506 36.6482 38.5644 36.4141 38.5644 36.1811C38.5657 31.7552 38.5644 27.3293 38.5644 22.9034C38.5644 21.6251 38.0045 21.1394 36.5273 21.1394C26.7104 21.1394 16.8936 21.1394 7.07673 21.1394C6.85905 21.1394 6.64263 21.1306 6.42496 21.1251C6.42496 15.0835 6.42496 9.04198 6.42747 3.00044C6.42747 1.66838 7.31454 0.612178 8.75397 0.21102C8.89741 0.171454 9.11383 0.212119 9.139 0L9.14026 0Z" fill="white"/>
<path d="M6.42399 37.9976C4.88641 37.9932 3.34883 37.9899 1.81125 37.9833C0.648627 37.9789 0.00188737 37.4238 0.00188737 36.4171C-0.000629124 31.8472 -0.000629124 27.2762 0.00188737 22.7063C0.00188737 21.7007 0.649885 21.1467 1.81251 21.1412C3.35009 21.1346 4.88767 21.1313 6.42524 21.127C6.64292 21.1313 6.85934 21.1412 7.07702 21.1412C16.8939 21.1412 26.7107 21.1412 36.5276 21.1412C38.0048 21.1412 38.5647 21.6259 38.5647 22.9052C38.5647 27.3312 38.5647 31.7571 38.5647 36.183C38.5647 36.416 38.5508 36.6501 38.5433 36.8831C38.2048 37.692 37.5229 37.9899 36.5603 37.9899C26.7321 37.98 16.9039 37.9833 7.07576 37.9844C6.85934 37.9844 6.64166 37.9932 6.42524 37.9976H6.42399Z" fill="#016FD0"/>
<path d="M32.2408 0.166016C36.4571 3.85337 40.6748 7.54072 44.8912 11.2281C44.7238 11.3721 44.5112 11.3138 44.3187 11.3138C41.3605 11.3204 38.4024 11.3226 35.443 11.3259C33.4185 11.2358 32.1376 10.0719 32.1363 8.31556C32.1351 5.76464 32.1351 3.21481 32.1388 0.663891C32.1388 0.496833 32.0696 0.309993 32.2408 0.167115V0.166016Z" fill="#C6CFDC"/>
<path d="M6.42578 37.9973C6.6422 37.9929 6.85988 37.9841 7.0763 37.9841C16.9045 37.9841 26.7327 37.9797 36.5608 37.9896C37.5234 37.9896 38.2041 37.6928 38.5438 36.8828C38.5514 37.2763 38.5791 37.6719 38.5614 38.0643C38.5287 38.7853 37.8682 39.3469 37.0402 39.3854C36.9899 39.3876 36.9396 39.3854 36.8892 39.3854C26.7377 39.3843 16.5861 39.3832 6.43585 39.381C6.43207 38.9194 6.4283 38.4578 6.42578 37.9962V37.9973Z" fill="#C9D0D7"/>
<path d="M35.4453 11.3244C38.4035 11.3211 41.3616 11.3189 44.321 11.3123C44.5135 11.3123 44.7262 11.3716 44.8935 11.2266C45.042 11.342 44.9904 11.498 44.9904 11.6376C44.9916 14.3072 44.9904 16.9758 44.9891 19.6454C44.7777 19.641 44.6721 19.4959 44.5462 19.3849C41.6158 16.8274 38.6853 14.2688 35.7574 11.7091C35.629 11.5969 35.4705 11.5024 35.4466 11.3244H35.4453Z" fill="white"/>
<path d="M18.9915 30.1021C18.1543 30.105 17.7357 29.7456 17.7357 29.0239C17.7357 28.5557 17.7395 28.0886 17.7345 27.6204C17.732 27.4358 17.7685 27.3072 18.0302 27.3127C18.6983 27.3281 19.3715 27.2984 20.0346 27.3533C20.8902 27.4237 21.4413 28.0545 21.3985 28.8261C21.3595 29.524 20.7241 30.0669 19.8949 30.0999C19.5942 30.112 19.2922 30.1021 18.9915 30.1021Z" fill="#016FD0"/>
<path d="M8.07812 25.4336H10.7676C12.166 25.4336 13.252 25.8027 14.0254 26.541C14.7988 27.2793 15.1855 28.3105 15.1855 29.6348C15.1855 31.0449 14.7832 32.125 13.9785 32.875C13.1777 33.625 12.0195 34 10.5039 34H8.07812V25.4336ZM9.89453 26.9219V32.5H10.6738C12.4238 32.5 13.2988 31.5605 13.2988 29.6816C13.2988 27.8418 12.4863 26.9219 10.8613 26.9219H9.89453ZM17.6948 32.9746C16.9916 32.2129 16.6401 31.1191 16.6401 29.6934C16.6401 28.2676 16.9916 27.1797 17.6948 26.4297C18.4018 25.6758 19.4116 25.2988 20.7241 25.2988C22.0405 25.2988 23.0483 25.6777 23.7475 26.4355C24.4467 27.1934 24.7963 28.2832 24.7963 29.7051C24.7963 31.123 24.4448 32.2129 23.7416 32.9746C23.0385 33.7363 22.0307 34.1172 20.7182 34.1172C19.4057 34.1172 18.3979 33.7363 17.6948 32.9746ZM20.7299 26.8105C20.0073 26.8105 19.4623 27.0547 19.0952 27.543C18.728 28.0273 18.5444 28.748 18.5444 29.7051C18.5444 31.6309 19.269 32.5938 20.7182 32.5938C22.1674 32.5938 22.892 31.6309 22.892 29.7051C22.892 27.7754 22.1713 26.8105 20.7299 26.8105ZM30.0946 34.1172C28.8485 34.1172 27.8954 33.7402 27.2352 32.9863C26.5751 32.2324 26.245 31.1465 26.245 29.7285C26.245 29.709 26.245 29.6895 26.245 29.6699C26.245 28.8105 26.4071 28.0488 26.7313 27.3848C27.0555 26.7168 27.5184 26.2051 28.12 25.8496C28.7216 25.4902 29.411 25.3105 30.1884 25.3105C30.2157 25.3105 30.2411 25.3105 30.2645 25.3105C31.1044 25.3105 31.9403 25.5117 32.7723 25.9141L32.1864 27.3906C31.3934 27.0117 30.7528 26.8223 30.2645 26.8223C29.5809 26.8223 29.0516 27.0801 28.6766 27.5957C28.3016 28.1074 28.1141 28.8223 28.1141 29.7402C28.1141 31.6504 28.8309 32.6055 30.2645 32.6055C30.8622 32.6055 31.5907 32.4551 32.4501 32.1543V33.6777C31.747 33.9707 30.9618 34.1172 30.0946 34.1172Z" fill="white"/>
</g>
<defs>
<clipPath id="clip0_9468_36818">
<rect width="45" height="45" fill="white"/>
</clipPath>
</defs>
</svg>
